<svg width="722" height="374" viewBox="0 0 722 374" fill="none" xmlns="http://www.w3.org/2000/svg">
<path fill-rule="evenodd" clip-rule="evenodd" d="M210.676 332.34L263.965 279.051H304.978L210.676 373.352L115.324 278H156.336L210.676 332.34ZM127.978 123.711L210.676 41.0122L263.965 94.3015L304.978 94.3015L210.676 0L86.9655 123.711H127.978Z" fill="#88D3FF"/>
<path d="M49.2962 217.528C47.6271 218.871 46.1248 220.104 44.7338 221.28C43.4542 222.455 41.7293 223.464 39.4481 224.64C37.2226 225.816 35.1639 226.656 32.994 227.104C30.9353 227.72 28.0421 228 24.2586 228C17.3038 228 11.5173 225.536 6.95489 220.888C2.33684 216.128 0 210.304 0 203.08C0 197.088 1.1684 192.328 3.50526 188.744C5.89775 185.103 9.2361 182.192 13.5759 180.064C18.0271 177.935 23.3684 176.424 29.4887 175.583C35.7203 174.799 42.3414 174.016 49.5188 173.623V173.12C49.5188 168.808 47.8496 165.728 44.6782 164.104C41.4511 162.424 36.6662 161.584 30.212 161.584C27.2632 161.584 23.9248 162.145 20.0301 163.264C16.191 164.216 12.4075 165.672 8.62406 167.296H6.62105V148.088C9.06917 147.304 12.9639 146.52 18.4165 145.512C23.8692 144.504 29.3218 144 34.9414 144C48.5173 144 58.3654 146.352 64.597 150.832C70.8842 155.424 74 162.424 74 171.72V225.873L49.2962 225.872V217.528ZM49.2962 205.096V188.576C45.1233 189.023 41.785 189.415 39.2812 189.751C36.7774 190.03 34.218 190.536 31.7699 191.488C29.6 192.216 27.9308 193.336 26.818 194.904C25.5939 196.472 24.9263 198.487 24.9263 200.951C24.9263 204.647 25.9835 207.224 27.9308 208.624C29.8782 210.024 32.8271 210.639 36.7774 210.639C38.7805 210.639 41.006 210.303 43.1759 209.183C45.5128 208.287 47.5158 206.832 49.2962 205.096Z" fill="#88D3FF"/>
<path d="M128.136 227.999C121.543 227.999 115.401 227.101 109.935 225.474C104.525 223.791 99.7921 221.266 95.7349 217.843C91.6778 214.308 88.5786 209.987 86.3246 204.825C84.0706 199.607 83 193.378 83 186.364C83 178.677 84.1271 172.336 86.6063 166.894C89.0294 161.563 92.2413 157.186 96.4675 153.763C100.468 150.453 105.145 147.984 110.611 146.413C115.964 144.786 121.599 144 127.46 144C131.855 144 136.363 144.562 140.702 145.627C145.153 146.581 149.548 148.208 154 150.453V171.719H150.788C149.887 170.765 148.59 169.699 147.182 168.689C145.66 167.455 144.195 166.445 142.448 165.547C140.645 164.425 138.504 163.751 136.363 162.966C133.996 162.292 131.46 161.9 128.643 161.9C122.275 161.9 117.317 164.088 113.823 168.577C110.386 172.954 108.526 178.901 108.526 186.364C108.526 194.276 110.442 200.28 114.161 204.208C117.88 208.079 122.783 210.043 129.037 210.043C132.193 210.043 135.01 209.651 137.433 209.033C139.744 208.304 141.772 207.406 143.406 206.452C145.153 205.442 146.618 204.489 147.802 203.367C148.985 202.357 150.056 201.403 150.788 200.561H154V221.772C152.591 222.389 150.957 223.117 149.041 223.959C147.182 224.689 145.379 225.363 143.35 225.867C140.983 226.653 138.617 226.989 136.532 227.382C134.39 227.775 131.629 228 128.136 228" fill="#88D3FF"/>
<path d="M260.607 228V187.123C260.607 183.15 260.55 179.811 260.377 176.99C260.205 174.226 259.745 171.923 258.999 170.196C258.309 168.411 257.103 167.202 255.609 166.396C254.115 165.532 251.932 165.188 249.232 165.188C247.279 165.188 245.383 165.532 243.43 166.396C241.534 167.26 239.466 168.526 237.225 170.023V228H211.775V187.123C211.775 183.15 211.717 179.811 211.545 176.99C211.315 174.226 210.971 171.923 210.224 170.196C209.419 168.411 208.328 167.202 206.834 166.396C205.226 165.532 203.1 165.188 200.4 165.188C198.274 165.188 196.263 165.648 194.253 166.569C192.242 167.605 190.289 168.757 188.45 170.023V228H163V146.303H188.45V155.342C192.587 151.83 196.551 149.009 200.227 146.994C203.847 145.036 207.983 144 212.637 144C217.577 144 222.001 145.209 225.678 147.57C229.584 149.93 232.399 153.442 234.41 158.221C239.293 153.672 243.947 150.16 248.198 147.685C252.564 145.209 256.93 144 261.354 144C265.146 144 268.535 144.691 271.58 145.842C274.567 147.108 277.153 148.951 279.163 151.312C281.519 153.96 283.185 157.069 284.276 160.696C285.483 164.323 286 168.987 286 174.859L286 228H260.607Z" fill="#88D3FF"/>
<path d="M422.938 222L435.539 149.484L456.806 149.534C464.21 149.534 469.755 151.194 473.44 154.515C477.126 157.835 478.736 162.467 478.271 168.41C477.674 175.35 473.308 180.579 465.173 184.099C468.427 185.36 470.851 187.519 472.444 190.573C474.071 193.628 474.735 196.998 474.437 200.684C473.938 207.225 471.315 212.421 466.567 216.272C461.819 220.091 455.677 222 448.14 222H422.938ZM438.179 188.083L433.646 214.181L448.438 214.23C452.954 214.23 456.739 213.019 459.794 210.595C462.849 208.171 464.625 204.9 465.123 200.783C465.588 196.865 464.907 193.811 463.081 191.619C461.255 189.428 458.383 188.266 454.465 188.133L438.179 188.083ZM439.523 180.413L453.021 180.463C457.237 180.463 460.79 179.384 463.679 177.226C466.601 175.067 468.311 172.096 468.809 168.311C469.24 164.791 468.543 162.135 466.717 160.342C464.924 158.549 461.936 157.569 457.752 157.403L443.508 157.354L439.523 180.413ZM493.462 222H484.497L493.86 168.111H502.825L493.462 222ZM500.883 148.438C502.41 148.372 503.672 148.837 504.668 149.833C505.697 150.796 506.212 152.074 506.212 153.668C506.179 155.229 505.664 156.507 504.668 157.503C503.705 158.499 502.443 159.03 500.883 159.097C499.322 159.163 498.044 158.715 497.048 157.752C496.052 156.789 495.57 155.527 495.604 153.967C495.637 152.406 496.135 151.111 497.098 150.082C498.061 149.053 499.322 148.505 500.883 148.438ZM517.966 222H509.001L522.249 145.5H531.264L517.966 222ZM552.032 197.147L544.96 203.473L541.772 222H532.758L546.056 145.5H555.07L547.102 191.221L552.63 185.643L571.755 168.111H583.459L558.706 191.071L575.739 222H565.878L552.032 197.147ZM605.722 222.996C599.015 222.863 593.769 220.39 589.983 215.575C586.198 210.761 584.604 204.602 585.202 197.098L585.451 194.956C586.016 189.61 587.593 184.729 590.183 180.313C592.806 175.897 595.993 172.577 599.745 170.353C603.497 168.095 607.548 167.016 611.897 167.115C617.442 167.248 621.792 169.091 624.946 172.644C628.101 176.196 629.827 181.011 630.126 187.087C630.226 189.245 630.159 191.403 629.927 193.562L629.379 197.695H594.167C593.569 202.576 594.366 206.727 596.558 210.146C598.782 213.566 602.086 215.343 606.469 215.476C611.781 215.608 616.695 213.218 621.211 208.304L626.391 212.687C624.133 215.94 621.211 218.497 617.625 220.356C614.072 222.183 610.104 223.062 605.722 222.996ZM611.449 174.636C607.73 174.536 604.477 175.798 601.688 178.421C598.932 181.044 596.74 184.945 595.113 190.125L621.311 190.175L621.51 189.378C622.041 185.194 621.36 181.725 619.468 178.969C617.608 176.18 614.936 174.735 611.449 174.636ZM653.186 168.062L651.891 174.885C656.738 169.572 662.25 166.982 668.426 167.115C673.506 167.248 677.258 169.008 679.682 172.395C682.105 175.781 683.002 180.546 682.371 186.688L676.494 222H667.479L673.406 186.539C673.605 184.912 673.622 183.401 673.456 182.007C672.892 177.358 670.152 174.984 665.238 174.885C659.826 174.785 655.078 177.674 650.994 183.551L644.32 222H635.306L644.669 168.111L653.186 168.062ZM714.196 155.062L711.905 168.111H721.717L720.472 175.233H710.71L705.082 208.752C704.982 209.615 704.966 210.412 705.032 211.143C705.265 213.732 706.676 215.027 709.266 215.027C710.361 215.027 711.822 214.861 713.648 214.529L712.951 222.05C710.793 222.647 708.602 222.946 706.377 222.946C702.791 222.88 700.102 221.568 698.309 219.012C696.516 216.422 695.818 212.952 696.217 208.603L701.695 175.233H692.183L693.428 168.111H702.94L705.231 155.062H714.196Z" fill="#4C9AFF"/>
<path d="M281.148 111.084L356.324 186.261L281 261.584H322.012L397.336 186.261L322.076 111L301.611 111.042L281.148 111.084Z" fill="#4C9AFF"/>
</svg>
