<?xml version="1.0" encoding="UTF-8" standalone="no"?>
<!DOCTYPE svg PUBLIC "-//W3C//DTD SVG 1.1//EN" "http://www.w3.org/Graphics/SVG/1.1/DTD/svg11.dtd">
<svg xmlns="http://www.w3.org/2000/svg" xmlns:xlink="http://www.w3.org/1999/xlink" version="1.1" width="541.5pt" height="280.5pt" viewBox="0 0 541.5 280.5">
<g enable-background="new">
<g>
<path d="M 158.008 249.254 L 197.973 209.289 L 228.734 209.289 L 158.008 280.016 L 86.492 208.5 L 117.254 208.5 Z M 95.984 92.785 L 158.008 30.758 L 197.973 70.727 L 228.734 70.727 L 158.008 0 L 65.223 92.785 Z M 95.984 92.785 " fill="#1992cf" fill-rule="evenodd"/>
<path d="M 36.973 163.145 C 35.719 164.152 34.594 165.078 33.551 165.961 C 32.59 166.84 31.297 167.598 29.586 168.48 C 27.918 169.363 26.371 169.992 24.746 170.328 C 23.203 170.789 21.031 171 18.195 171 C 12.977 171 8.637 169.152 5.215 165.664 C 1.754 162.098 0 157.727 0 152.309 C 0 147.816 .875 144.246 2.629 141.559 C 4.422 138.828 6.926 136.645 10.184 135.047 C 13.52 133.453 17.527 132.316 22.117 131.688 C 26.789 131.098 31.758 130.512 37.141 130.219 L 37.141 129.84 C 37.141 126.605 35.887 124.297 33.508 123.078 C 31.09 121.816 27.5 121.188 22.66 121.188 C 20.449 121.188 17.945 121.609 15.023 122.449 C 12.145 123.16 9.305 124.254 6.469 125.473 L 4.965 125.473 L 4.965 111.066 C 6.801 110.477 9.723 109.891 13.812 109.133 C 17.902 108.379 21.992 108 26.207 108 C 36.387 108 43.773 109.766 48.449 113.125 C 53.164 116.566 55.5 121.816 55.5 128.789 L 55.5 169.406 L 36.973 169.402 Z M 36.973 153.82 L 36.973 141.434 C 33.844 141.766 31.34 142.062 29.461 142.312 C 27.582 142.523 25.664 142.902 23.828 143.617 C 22.199 144.16 20.949 145.004 20.113 146.18 C 19.195 147.355 18.695 148.867 18.695 150.715 C 18.695 153.484 19.488 155.418 20.949 156.469 C 22.41 157.52 24.621 157.98 27.582 157.98 C 29.086 157.98 30.754 157.727 32.383 156.887 C 34.133 156.215 35.637 155.125 36.973 153.82 Z M 36.973 153.82 " fill="#1992cf"/>
<path d="M 95.352 171 C 90.406 171 85.801 170.324 81.703 169.105 C 77.645 167.844 74.094 165.949 71.051 163.383 C 68.008 160.73 65.684 157.492 63.992 153.617 C 62.305 149.707 61.5 145.035 61.5 139.773 C 61.5 134.008 62.344 129.254 64.203 125.172 C 66.023 121.172 68.43 117.891 71.602 115.32 C 74.602 112.84 78.109 110.988 82.207 109.809 C 86.223 108.59 90.449 108 94.844 108 C 98.141 108 101.523 108.422 104.777 109.219 C 108.113 109.938 111.41 111.156 114.75 112.84 L 114.75 128.789 L 112.34 128.789 C 111.664 128.074 110.691 127.273 109.637 126.516 C 108.496 125.59 107.395 124.832 106.086 124.16 C 104.734 123.32 103.129 122.812 101.523 122.223 C 99.746 121.719 97.844 121.426 95.73 121.426 C 90.957 121.426 87.238 123.066 84.617 126.434 C 82.039 129.715 80.645 134.176 80.645 139.773 C 80.645 145.707 82.082 150.211 84.871 153.156 C 87.66 156.059 91.336 157.531 96.027 157.531 C 98.395 157.531 100.508 157.238 102.324 156.773 C 104.059 156.227 105.578 155.555 106.805 154.84 C 108.113 154.082 109.215 153.367 110.102 152.523 C 110.988 151.77 111.793 151.051 112.34 150.422 L 114.75 150.422 L 114.75 166.328 C 113.691 166.793 112.469 167.336 111.031 167.969 C 109.637 168.516 108.285 169.023 106.762 169.398 C 104.988 169.988 103.211 170.242 101.648 170.535 C 100.043 170.832 97.973 171 95.352 171 " fill="#1992cf"/>
<path d="M 194.707 171 L 194.707 140.344 C 194.707 137.363 194.664 134.859 194.531 132.742 C 194.402 130.668 194.059 128.941 193.5 127.648 C 192.98 126.309 192.078 125.402 190.957 124.797 C 189.836 124.148 188.199 123.891 186.176 123.891 C 184.711 123.891 183.289 124.148 181.824 124.797 C 180.402 125.445 178.848 126.395 177.168 127.516 L 177.168 171 L 158.082 171 L 158.082 140.344 C 158.082 137.363 158.039 134.859 157.91 132.742 C 157.734 130.668 157.477 128.941 156.918 127.648 C 156.312 126.309 155.496 125.402 154.375 124.797 C 153.168 124.148 151.574 123.891 149.551 123.891 C 147.957 123.891 146.445 124.234 144.941 124.926 C 143.43 125.703 141.965 126.566 140.586 127.516 L 140.586 171 L 121.5 171 L 121.5 109.727 L 140.586 109.727 L 140.586 116.508 C 143.691 113.871 146.664 111.758 149.422 110.246 C 152.137 108.777 155.238 108 158.727 108 C 162.434 108 165.75 108.906 168.508 110.676 C 171.438 112.449 173.551 115.082 175.059 118.664 C 178.719 115.254 182.211 112.621 185.398 110.766 C 188.672 108.906 191.949 108 195.266 108 C 198.109 108 200.652 108.52 202.934 109.383 C 205.176 110.332 207.113 111.715 208.621 113.484 C 210.391 115.469 211.641 117.801 212.457 120.523 C 213.363 123.242 213.75 126.742 213.75 131.145 L 213.75 171 Z M 194.707 171 " fill="#1992cf"/>
<path d="M 317.203 166.5 L 326.652 112.113 L 342.605 112.152 C 348.156 112.152 352.316 113.395 355.078 115.887 C 357.844 118.375 359.051 121.852 358.703 126.309 C 358.254 131.512 354.98 135.434 348.879 138.074 C 351.32 139.02 353.137 140.641 354.332 142.93 C 355.555 145.223 356.051 147.75 355.828 150.512 C 355.453 155.418 353.484 159.316 349.926 162.203 C 346.363 165.066 341.758 166.5 336.105 166.5 Z M 328.633 141.062 L 325.234 160.637 L 336.328 160.672 C 339.715 160.672 342.555 159.766 344.844 157.945 C 347.137 156.129 348.469 153.676 348.844 150.586 C 349.191 147.648 348.68 145.359 347.312 143.715 C 345.941 142.07 343.789 141.199 340.848 141.102 Z M 329.641 135.309 L 339.766 135.348 C 342.93 135.348 345.594 134.539 347.758 132.918 C 349.949 131.301 351.234 129.07 351.605 126.234 C 351.93 123.594 351.406 121.602 350.039 120.258 C 348.691 118.91 346.453 118.176 343.312 118.051 L 332.633 118.016 Z M 370.098 166.5 L 363.371 166.5 L 370.395 126.082 L 377.117 126.082 Z M 375.664 111.328 C 376.809 111.277 377.754 111.629 378.5 112.375 C 379.273 113.098 379.66 114.055 379.66 115.25 C 379.633 116.422 379.246 117.379 378.5 118.129 C 377.777 118.875 376.832 119.273 375.664 119.324 C 374.492 119.371 373.531 119.035 372.785 118.312 C 372.039 117.59 371.676 116.645 371.703 115.477 C 371.727 114.305 372.102 113.332 372.824 112.562 C 373.547 111.789 374.492 111.379 375.664 111.328 Z M 388.473 166.5 L 381.75 166.5 L 391.688 109.125 L 398.449 109.125 Z M 414.023 147.859 L 408.719 152.605 L 406.328 166.5 L 399.57 166.5 L 409.543 109.125 L 416.301 109.125 L 410.328 143.414 L 414.473 139.23 L 428.816 126.082 L 437.594 126.082 L 419.031 143.305 L 431.805 166.5 L 424.41 166.5 Z M 454.293 167.246 C 449.262 167.148 445.328 165.293 442.488 161.68 C 439.648 158.07 438.453 153.453 438.902 147.824 L 439.09 146.219 C 439.512 142.207 440.695 138.547 442.637 135.234 C 444.605 131.922 446.996 129.434 449.809 127.766 C 452.621 126.07 455.66 125.262 458.922 125.336 C 463.082 125.438 466.344 126.816 468.711 129.484 C 471.074 132.148 472.371 135.758 472.594 140.316 C 472.668 141.934 472.621 143.551 472.445 145.172 L 472.035 148.27 L 445.625 148.27 C 445.176 151.934 445.773 155.047 447.418 157.609 C 449.086 160.176 451.566 161.508 454.852 161.605 C 458.836 161.707 462.52 159.914 465.91 156.227 L 469.793 159.516 C 468.102 161.953 465.91 163.871 463.219 165.266 C 460.555 166.637 457.578 167.297 454.293 167.246 Z M 458.586 130.977 C 455.797 130.902 453.359 131.848 451.266 133.816 C 449.199 135.781 447.555 138.707 446.336 142.594 L 465.984 142.633 L 466.133 142.035 C 466.531 138.895 466.02 136.293 464.602 134.227 C 463.207 132.137 461.203 131.051 458.586 130.977 Z M 489.891 126.047 L 488.918 131.164 C 492.555 127.18 496.688 125.238 501.32 125.336 C 505.129 125.438 507.945 126.758 509.762 129.297 C 511.578 131.836 512.25 135.41 511.777 140.016 L 507.371 166.5 L 500.609 166.5 L 505.055 139.902 C 505.203 138.684 505.215 137.551 505.094 136.504 C 504.668 133.02 502.613 131.238 498.93 131.164 C 494.871 131.09 491.309 133.254 488.246 137.664 L 483.238 166.5 L 476.48 166.5 L 483.5 126.082 Z M 535.648 116.297 L 533.93 126.082 L 541.289 126.082 L 540.355 131.426 L 533.031 131.426 L 528.812 156.562 C 528.738 157.211 528.723 157.809 528.773 158.355 C 528.949 160.301 530.008 161.27 531.949 161.27 C 532.77 161.27 533.867 161.145 535.234 160.898 L 534.715 166.539 C 533.094 166.984 531.453 167.211 529.781 167.211 C 527.094 167.16 525.078 166.176 523.73 164.258 C 522.387 162.316 521.863 159.715 522.164 156.453 L 526.27 131.426 L 519.137 131.426 L 520.07 126.082 L 527.203 126.082 L 528.922 116.297 Z M 535.648 116.297 " fill="#195faa"/>
<path d="M 210.859 83.312 L 267.242 139.695 L 210.75 196.188 L 241.508 196.188 L 298.004 139.695 L 241.559 83.25 L 226.207 83.281 Z M 210.859 83.312 " fill="#195faa"/>
</g>
</g>
</svg>
